<svg width="176" height="831" viewBox="0 0 176 831" fill="none" xmlns="http://www.w3.org/2000/svg">
 <path d="M128.769 3C128.769 3 129.289 57.2267 128.769 74.2291C128.249 91.2315 127 169 127 169" stroke="#282828" stroke-dasharray="2 2"/>
 <path d="M56.1626 477.973C58.3293 489.806 64.4626 516.173 71.6626 526.973C78.8626 537.773 81.9959 549.14 82.6626 553.473L92.6626 588.473C92.6626 592.64 93.8626 602.773 98.6626 609.973C103.463 617.173 105.996 622.64 106.663 624.473C107.829 641.473 110.263 676.573 110.663 680.973C111.163 686.473 120.663 731.973 120.163 734.473C119.763 736.473 119.996 766.307 120.163 780.973C120.163 782.807 118.263 787.173 110.663 789.973C103.063 792.773 81.4959 802.473 71.6626 806.973H65.1626L54.1626 812.973H48.6626L42.6626 816.473L40.1626 820.473V823.973H44.1626L47.1626 826.473L48.6626 828.473L50.6626 826.473H52.1626H55.6626H57.6626V828.473L62.1626 826.473H66.6626L69.6626 823.973L71.6626 826.473C82.6626 826.307 107.763 825.573 120.163 823.973C132.563 822.373 140.329 824.973 142.663 826.473C148.329 826.307 159.663 824.073 159.663 816.473C159.663 806.973 155.663 789.973 154.663 786.973C153.663 783.973 152.663 755.473 156.663 748.473C160.663 741.473 169.663 703.473 170.663 692.973C171.663 682.473 172.663 643.473 163.163 624.473C153.663 605.473 153.663 590.473 150.663 584.473C148.263 579.673 147.329 573.473 147.163 570.973L148.663 522.473C148.663 502.64 148.663 461.073 148.663 453.473C148.663 443.973 160.663 441.973 162.163 427.473C163.663 412.973 160.663 394.473 156.663 382.473C153.463 372.873 148.996 353.473 147.163 344.973C147.496 332.14 149.563 302.873 155.163 288.473C162.163 270.473 172.663 237.473 173.163 230.473C173.663 223.473 175.663 179.473 170.163 164.973C165.763 153.373 156.329 138.14 152.163 131.973C149.829 124.473 145.863 107.473 148.663 99.4731C151.463 91.4731 164.163 68.8065 170.163 58.4731C172.829 51.1398 175.863 33.1731 166.663 19.9731C155.163 3.47314 145.163 -0.0268547 114.163 2.97315" stroke="#3AC000" stroke-width="3"/>
 <path d="M149.663 94.9732C150.163 92.9732 172.163 62.9731 172.663 48.9731C173.163 34.9731 172.663 18.9731 156.663 9.47315C140.663 -0.0268517 117.663 -0.0268517 101.163 6.97315C84.6625 13.9731 80.1625 28.9731 79.6625 32.9731C79.1625 36.9731 79.1625 47.4731 78.1625 51.4731C77.1625 55.4731 66.6625 67.4731 67.6625 68.9731C68.6625 70.4731 68.1626 72.4731 71.1626 73.4731C73.5626 74.2731 75.4959 74.4731 76.1626 74.4731V76.4731L73.1626 78.4731V80.9731L74.6626 83.4731L76.1626 85.4731L73.1626 86.9731L74.6626 89.4731L76.1626 91.4731L76.6626 93.9731C75.4959 94.9731 73.1626 97.5731 73.1626 99.9731C73.1626 102.373 73.1626 104.306 73.1626 104.973L74.6626 106.473C75.6626 107.473 78.7626 109.573 83.1626 109.973C87.5626 110.373 93.9959 110.14 96.6626 109.973L100.163 110.473L99.1626 122.473C99.9959 124.14 101.863 127.973 102.663 129.973C103.463 131.973 101.329 138.14 100.163 140.973L89.1626 148.473C81.1626 155.806 64.7626 171.473 63.1626 175.473C61.1626 180.473 47.1626 191.473 46.6626 201.473C46.2626 209.473 47.4959 214.473 48.1626 215.973V221.473V227.473L46.6626 233.473C46.1626 237.806 45.4626 248.273 46.6626 255.473C47.8626 262.673 50.4959 268.806 51.6626 270.973V281.973C50.9959 284.973 49.6626 291.973 49.6626 295.973C49.6626 299.973 49.6626 307.973 49.6626 311.473C51.4959 322.806 55.2626 345.773 55.6626 346.973C56.0626 348.173 55.8292 379.14 55.6626 394.473V396.973M55.6626 396.973L46.1626 420.973L32.6626 441.973C32.1626 444.14 31.4626 448.873 32.6626 450.473C33.8626 452.073 36.4959 458.806 37.6626 461.973L38.6626 469.473L41.6626 472.473C45.3293 473.973 53.2626 476.973 55.6626 476.973C58.6626 476.973 64.6626 478.473 65.6626 476.973C66.4626 475.773 67.3293 473.473 67.6626 472.473L66.1626 468.473L63.6626 461.973V455.973C67.3293 448.64 74.7626 432.973 75.1626 428.973C75.5626 424.973 75.3293 416.973 75.1626 413.473L116.163 357.973C124.163 344.806 140.563 316.373 142.163 307.973C143.763 299.573 143.829 295.473 143.663 294.473V289.473C145.996 277.973 150.763 254.673 151.163 253.473C151.663 251.973 153.663 221.473 154.663 221.473C155.463 221.473 156.329 217.806 156.663 215.973C158.996 211.973 163.663 202.473 163.663 196.473M55.6626 396.973C56.4626 396.173 61.3293 383.306 63.6626 376.973L71.6626 355.473C76.3293 342.973 86.1626 317.073 88.1626 313.473C90.6626 308.973 97.1626 292.973 101.663 289.473C105.263 286.673 101.496 276.306 99.1626 271.473C99.3293 259.14 99.8626 233.073 100.663 227.473C101.663 220.473 103.163 211.473 102.663 206.473C102.163 201.473 96.6626 188.973 90.1626 179.973" stroke="#3AC000" stroke-width="3"/>
 <line x1="67" y1="169.5" x2="173" y2="169.5" stroke="black" stroke-dasharray="2 2"/>
 <path d="M46 473.5C47.2439 479.5 48.6463 505 49.2683 511C49.7659 515.8 52.1341 532 54 537L57.3537 551L62.3293 565V572.5C63.1585 575.667 59.0073 590.9 60.5 594.5C62.3659 599 67.3902 605.5 70.5 610.5C72.9878 614.5 75.6707 639.5 76.5 647C77.3293 662.667 79.0146 673.9 82 683.5C84.9854 693.1 89.378 725 90 729C92.0732 737 93 761.5 93 767.5C93 773.5 90 778 90 784.5L84 792L79 795C64.6829 798.5 47.5268 805.4 43.0488 807C38.5707 808.6 29.9878 810.667 26.2561 811.5H16.3049V816H7.59756L2 820.5V827.5H7.59756L22 825H26.2561L30 827.5H33L37 826.5L39.5 825.5L40.5 825H41.5" stroke="#3AC000" stroke-width="3"/>
 <line x1="120.5" y1="349.986" x2="133.5" y2="802.986" stroke="black" stroke-dasharray="2 2"/>
 <path d="M61 496.5L108 787" stroke="black" stroke-dasharray="2 2"/>
 </svg>