<svg width="344" height="832" viewBox="0 0 344 832" fill="none" xmlns="http://www.w3.org/2000/svg">
<line x1="172.5" y1="2" x2="172.5" y2="452" stroke="#282828" stroke-dasharray="2 2"/>
<line x1="83" y1="162.5" x2="264" y2="162.5" stroke="#282828" stroke-dasharray="2 2"/>
<line x1="101" y1="381.5" x2="247" y2="381.5" stroke="#282828" stroke-dasharray="2 2"/>
<path d="M130 64.5C130 64.5 143.5 60 172.5 60C201.5 60 215 64.5 215 64.5" stroke="#282828" stroke-dasharray="2 2"/>
<line x1="139" y1="606.5" x2="204" y2="606.5" stroke="#282828" stroke-dasharray="2 2"/>
<path d="M139 382L140 781" stroke="black" stroke-dasharray="2 2"/>
<path d="M204.5 382L204.5 781" stroke="black" stroke-dasharray="2 2"/>
<path d="M172.272 2.03273C158.605 1.36606 131.472 10.6327 132.272 53.0327C128.272 59.1994 124.172 74.0327 139.772 84.0327C140.105 89.366 141.672 100.533 145.272 102.533C149.772 105.033 143.272 127.033 137.772 132.533C132.272 138.033 88.7721 160.033 78.7721 162.533C68.7721 165.033 55.2721 190.533 62.2721 219.533C69.2721 248.533 64.7721 232.533 66.7721 240.033C68.7721 247.533 63.7721 257.533 69.2721 285.033C63.4388 296.033 52.5721 323.933 55.7721 347.533C52.9388 363.866 46.0721 398.133 41.2721 404.533C35.2721 412.533 33.2721 406.533 23.7721 416.533C14.2721 426.533 8.27209 434.533 4.27209 437.033C1.07209 439.033 1.93875 441.199 2.77209 442.033C4.43876 442.699 8.57209 443.633 11.7721 442.033C14.9721 440.433 19.7721 435.033 21.7721 432.533C21.7721 450.366 21.7721 486.333 21.7721 487.533C21.7721 488.733 23.1054 490.699 23.7721 491.533C24.9388 481.199 27.7721 460.733 29.7721 461.533C31.7721 462.333 28.6054 481.866 26.7721 491.533V496.033L29.7721 494.033C33.1054 482.033 39.7721 459.033 39.7721 463.033C39.7721 468.033 35.7721 489.033 33.7721 491.533C32.1721 493.533 33.1054 495.366 33.7721 496.033L37.2721 494.033C41.1054 484.699 48.6721 465.733 48.2721 464.533C47.7721 463.033 46.2721 489.033 46.2721 491.533C46.2721 493.533 48.6054 490.699 49.7721 489.033C51.1054 479.866 54.1721 461.533 55.7721 461.533C57.7721 461.533 65.7721 423.533 64.2721 420.033C62.7721 416.533 97.2721 351.533 96.7721 347.533C96.2721 343.533 100.772 326.033 98.7721 315.033C97.1721 306.233 104.772 293.366 108.772 288.033L98.7721 240.033C103.939 260.199 114.072 301.533 113.272 305.533C112.272 310.533 98.2721 398.033 96.7721 409.033C95.2721 420.033 95.7721 530.033 115.272 573.533C115.272 566.033 118.272 584.033 117.772 588.033C117.272 592.033 113.272 591.533 117.772 625.033C116.772 628.199 114.572 635.333 113.772 638.533C112.772 642.533 104.272 666.533 109.772 698.033C115.272 729.533 131.772 758.533 133.272 771.033C134.472 781.033 134.772 789.866 134.772 793.033L133.272 796.533V800.033V804.533L120.272 818.033C119.605 819.366 118.672 822.233 120.272 823.033C121.872 823.833 124.272 824.699 125.272 825.033L128.272 827.033L133.272 825.033L134.772 827.033H136.772L138.272 825.033L140.272 827.033H142.272H144.772H146.772L148.272 825.033L150.272 827.033H153.272L158.272 828.533L161.772 825.033C161.939 824.699 162.472 823.433 163.272 821.033C164.072 818.633 163.605 814.366 163.272 812.533L161.772 809.533C161.772 803.199 161.772 790.233 161.772 789.033C161.772 787.533 161.272 781.033 158.272 777.533C155.872 774.733 155.272 755.699 155.272 746.533L158.272 700.033C158.605 697.866 159.172 692.433 158.772 688.033C158.272 682.533 153.772 649.533 155.272 644.033C156.772 638.533 159.272 622.033 165.272 609.033C165.939 599.866 166.872 580.733 165.272 577.533C163.272 573.533 163.272 546.533 163.272 542.033C163.272 537.533 168.772 451.033 170.772 450.533C172.772 450.033 180.272 535.033 179.772 538.533C179.372 541.333 179.605 561.033 179.772 570.533C178.772 576.033 176.872 589.533 177.272 599.533C177.772 612.033 185.272 631.533 186.272 635.033C187.272 638.533 189.272 654.033 187.772 661.033C186.272 668.033 182.272 685.033 184.272 700.033C185.872 712.033 187.272 745.699 187.772 761.033C187.272 762.366 186.272 765.633 186.272 768.033C186.272 770.433 186.272 773.699 186.272 775.033C184.939 777.033 182.072 781.533 181.272 783.533C180.272 786.033 181.272 805.533 181.272 807.533C181.272 809.533 181.272 811.033 181.272 816.033C181.272 820.033 181.272 822.366 181.272 823.033L184.272 827.033L187.772 828.533H190.772H192.272L194.772 827.033L196.272 825.033L198.272 827.033L200.272 828.533V827.033H203.772V825.033H205.772L207.272 827.033H209.772L211.772 825.033H214L215 826H216.5L218.5 825.033V824H221L222.5 825.033L224.5 823.033C225.167 822.011 226.3 819.774 225.5 819C224.5 818.033 213 807.5 213 805.5C213 803.5 213.5 796.5 213 794.5C212.5 792.5 210.5 789 210.5 788C210.5 787 209.228 780 210.5 777C211.772 774 226.5 724.5 228 721C229.5 717.5 236 701.565 236.5 688.033C236.9 677.207 237 665.833 237 661.5C236.833 658.333 236.3 651.6 235.5 650C234.5 648 232.5 639 231.5 637.5C230.7 636.3 229.167 631.333 228.5 629C228.5 618.833 228.5 597.8 228.5 595C228.5 592.2 227.833 586.5 227.5 584C227.667 581.822 228.2 576.774 229 574C230 570.533 239.5 535.5 240 533C240.5 530.5 245.5 508.5 246.5 493.5C247.5 478.5 252 418.5 245 385C238 351.5 232 317 232.5 308.5C232.9 301.7 243.333 260.022 248.5 240.033L237.5 291L246.5 313C246.5 320.489 246.9 336.674 248.5 341.5C250.1 346.326 269.833 393.533 279.5 416.533L282 426.5V432.533C284 445.877 289.5 475.859 295.5 489.033C301.5 502.207 298 478.167 295.5 464.5L296.5 463.5L298 464.5L299 469.5C301.167 477.167 306 492.8 308 494C310 495.2 310.5 494.5 310.5 494L311 490.5V488C308.333 481.333 303.4 467.3 305 464.5C306.6 461.7 307 463.333 307 464.5L308 467.5L310.5 479.5C311.5 484.333 313.8 494.2 315 495C316.2 495.8 316.833 495.333 317 495L318.5 493.5C316.167 483.333 311.9 462.7 313.5 461.5C315.1 460.3 315.167 461 315 461.5L316 464.5C316.833 472.667 318.9 489.3 320.5 490.5C322.1 491.7 323.833 490.022 324.5 489.033L323.5 478C322.667 468.667 321.1 449.3 321.5 446.5C322 443 321.5 431.065 322.5 432.533C323.5 434 338 446.5 341 442.5C343.4 439.3 341.667 437.5 340.5 437C335.333 433.156 325 424.574 325 421C325 416.533 312.5 410.5 307 408.5C301.5 406.5 289.5 357 289.5 350.5C289.5 344 290.5 329.5 288.5 318.5C286.5 307.5 279.5 292 277.5 291.5C275.5 291 278.5 244 279.5 238.5C280.5 233 285.5 208.5 285 200.5C284.5 192.5 283 174 270 165C257 156 211 140.5 205.5 129.5C200 118.5 198 108 199 103.5C200 99 204 99.5 204 92C204 84.5 205 84.5 205.5 84C206 83.5 208.5 84.5 209.5 83.5C210.5 82.5 216.5 75.5 216.5 69C216.5 62.5 217 58.5 213.5 55C210 51.5 213 38.5 211.5 33.5C210 28.5 204.772 2.03273 172.272 2.03273Z" stroke="#3AC000" stroke-width="3"/>
</svg>
